<svg width="20" height="19" viewBox="0 0 20 19" fill="none" xmlns="http://www.w3.org/2000/svg">
<path d="M4.851 1.405C5.873 1.405 6.699 1.804 7.329 2.602C7.973 3.386 8.295 4.415 8.295 5.689C8.295 7.299 7.91 8.573 7.14 9.511C6.384 10.435 5.341 10.897 4.011 10.897C3.003 10.897 2.177 10.498 1.533 9.7C0.889 8.902 0.567 7.81 0.567 6.424C0.567 5.038 0.966 3.855 1.764 2.875C2.576 1.895 3.605 1.405 4.851 1.405ZM4.494 9.301C5.096 9.301 5.509 9.091 5.733 8.671C5.957 8.237 6.069 7.446 6.069 6.298C6.069 5.136 5.95 4.338 5.712 3.904C5.488 3.456 5.068 3.232 4.452 3.232C3.85 3.232 3.423 3.435 3.171 3.841C2.919 4.247 2.793 4.996 2.793 6.088C2.793 7.18 2.926 7.992 3.192 8.524C3.472 9.042 3.906 9.301 4.494 9.301ZM16.464 6.571C17.486 6.571 18.312 6.97 18.942 7.768C19.586 8.552 19.908 9.581 19.908 10.855C19.908 12.465 19.523 13.739 18.753 14.677C17.997 15.601 16.954 16.063 15.624 16.063C14.616 16.063 13.79 15.664 13.146 14.866C12.502 14.068 12.18 12.976 12.18 11.59C12.18 10.204 12.579 9.021 13.377 8.041C14.189 7.061 15.218 6.571 16.464 6.571ZM16.107 14.467C16.709 14.467 17.122 14.257 17.346 13.837C17.57 13.403 17.682 12.612 17.682 11.464C17.682 10.302 17.563 9.504 17.325 9.07C17.101 8.622 16.681 8.398 16.065 8.398C15.463 8.398 15.036 8.601 14.784 9.007C14.532 9.413 14.406 10.162 14.406 11.254C14.406 12.346 14.539 13.158 14.805 13.69C15.085 14.208 15.519 14.467 16.107 14.467ZM6.426 18.499L4.767 17.827L13.608 0.0819997L15.267 0.754L6.426 18.499Z" fill="#2F3035"/>
</svg>
